<?xml version="1.0" encoding="UTF-8" standalone="no"?> <svg width="75.4944mm" height="72.6722mm"  viewBox="0 0 214.487 206"  xmlns="http://www.w3.org/2000/svg" xmlns:xlink="http://www.w3.org/1999/xlink"  version="1.2" baseProfile="tiny"> <title>Generated with ETE http://etetoolkit.org</title> <desc>Generated with ETE http://etetoolkit.org</desc> <defs> </defs> <g fill="none" stroke="black" stroke-width="1" fill-rule="evenodd" stroke-linecap="square" stroke-linejoin="bevel" >      <g fill="none" stroke="none" transform="matrix(1,0,0,1,0,0)" font-family="Noto Sans" font-size="12pt" font-weight="400" font-style="normal"  > <rect x="0" y="0" width="214.487" height="206"/> </g>      <g fill="none" stroke="none" transform="matrix(1,0,0,1,1,1)" font-family="Noto Sans" font-size="12pt" font-weight="400" font-style="normal"  > <rect x="0" y="0" width="212.487" height="154"/> </g>                                                          <g fill="none" stroke="#000000" stroke-opacity="1" stroke-width="1" stroke-linecap="butt" stroke-linejoin="bevel" transform="matrix(1,0,0,1,1,1)" font-family="Noto Sans" font-size="12pt" font-weight="400" font-style="normal"  > <polyline fill="none" vector-effect="none" points="-0.5,71 -0.5,143.5 " /> </g>                              <g fill="none" stroke="#000000" stroke-opacity="1" stroke-width="1" stroke-linecap="butt" stroke-linejoin="bevel" transform="matrix(1,0,0,1,1,1)" font-family="Noto Sans" font-size="12pt" font-weight="400" font-style="normal"  > <polyline fill="none" vector-effect="none" points="57.5264,38 57.5264,105 " /> </g>      <g fill="none" stroke="#808080" stroke-opacity="1" stroke-dasharray="1,2" stroke-dashoffset="0" stroke-width="1" stroke-linecap="butt" stroke-linejoin="bevel" transform="matrix(1,0,0,1,1,1)" font-family="Noto Sans" font-size="12pt" font-weight="400" font-style="normal"  > <polyline fill="none" vector-effect="none" points="58.0264,71.5 57.0264,71.5 " /> </g>      <g fill="none" stroke="#000000" stroke-opacity="1" stroke-width="1" stroke-linecap="butt" stroke-linejoin="bevel" transform="matrix(1,0,0,1,1,1)" font-family="Noto Sans" font-size="12pt" font-weight="400" font-style="normal"  > <polyline fill="none" vector-effect="none" points="0,71.5 58.0264,71.5 " /> </g>                  <g fill="none" stroke="#000000" stroke-opacity="1" stroke-width="1" stroke-linecap="butt" stroke-linejoin="bevel" transform="matrix(1,0,0,1,59.0264,1)" font-family="Noto Sans" font-size="12pt" font-weight="400" font-style="normal"  > <polyline fill="none" vector-effect="none" points="15.5051,21.5 15.5051,55.5 " /> </g>      <g fill="none" stroke="#808080" stroke-opacity="1" stroke-dasharray="1,2" stroke-dashoffset="0" stroke-width="1" stroke-linecap="butt" stroke-linejoin="bevel" transform="matrix(1,0,0,1,59.0264,1)" font-family="Noto Sans" font-size="12pt" font-weight="400" font-style="normal"  > <polyline fill="none" vector-effect="none" points="16.0051,38.5 15.0051,38.5 " /> </g>      <g fill="none" stroke="#000000" stroke-opacity="1" stroke-width="1" stroke-linecap="butt" stroke-linejoin="bevel" transform="matrix(1,0,0,1,59.0264,1)" font-family="Noto Sans" font-size="12pt" font-weight="400" font-style="normal"  > <polyline fill="none" vector-effect="none" points="0,38.5 16.0051,38.5 " /> </g>                  <g fill="none" stroke="#000000" stroke-opacity="1" stroke-width="1" stroke-linecap="butt" stroke-linejoin="bevel" transform="matrix(1,0,0,1,75.0315,1)" font-family="Noto Sans" font-size="12pt" font-weight="400" font-style="normal"  > <polyline fill="none" vector-effect="none" points="4.98265,10.5 4.98265,33.5 " /> </g>      <g fill="none" stroke="#808080" stroke-opacity="1" stroke-dasharray="1,2" stroke-dashoffset="0" stroke-width="1" stroke-linecap="butt" stroke-linejoin="bevel" transform="matrix(1,0,0,1,75.0315,1)" font-family="Noto Sans" font-size="12pt" font-weight="400" font-style="normal"  > <polyline fill="none" vector-effect="none" points="5.48265,22 4.48265,22 " /> </g>      <g fill="none" stroke="#000000" stroke-opacity="1" stroke-width="1" stroke-linecap="butt" stroke-linejoin="bevel" transform="matrix(1,0,0,1,75.0315,1)" font-family="Noto Sans" font-size="12pt" font-weight="400" font-style="normal"  > <polyline fill="none" vector-effect="none" points="0,22 5.48265,22 " /> </g>                        <g fill="none" stroke="#000000" stroke-opacity="1" stroke-width="1" stroke-linecap="butt" stroke-linejoin="bevel" transform="matrix(1,0,0,1,80.5141,1)" font-family="Noto Sans" font-size="12pt" font-weight="400" font-style="normal"  > <polyline fill="none" vector-effect="none" points="0,11 3.36274,11 " /> </g>      <g fill="#58b4d1" fill-opacity="1" stroke="#58b4d1" stroke-opacity="1" stroke-width="1" stroke-linecap="square" stroke-linejoin="bevel" transform="matrix(1,0,0,1,83.8769,3.5)" font-family="Noto Sans" font-size="12pt" font-weight="400" font-style="normal"  > <rect x="0" y="0" width="76" height="17"/> </g>          <g fill="none" stroke="#ffffff" stroke-opacity="1" stroke-width="1" stroke-linecap="square" stroke-linejoin="bevel" transform="matrix(1,0,0,1,83.8769,3.5)" font-family="Verdana" font-size="10pt" font-weight="400" font-style="italic"  > <text fill="#ffffff" fill-opacity="1" stroke="none" xml:space="preserve" x="0" y="13" font-family="Verdana" font-size="10pt" font-weight="400" font-style="italic"   >P. syringae</text> </g>                    <g fill="none" stroke="#000000" stroke-opacity="1" stroke-width="1" stroke-linecap="butt" stroke-linejoin="bevel" transform="matrix(1,0,0,1,80.5141,23)" font-family="Noto Sans" font-size="12pt" font-weight="400" font-style="normal"  > <polyline fill="none" vector-effect="none" points="0,11 2.71235,11 " /> </g>      <g fill="#126782" fill-opacity="1" stroke="#126782" stroke-opacity="1" stroke-width="1" stroke-linecap="square" stroke-linejoin="bevel" transform="matrix(1,0,0,1,83.2265,25.5)" font-family="Noto Sans" font-size="12pt" font-weight="400" font-style="normal"  > <rect x="0" y="0" width="91" height="17"/> </g>          <g fill="none" stroke="#ffffff" stroke-opacity="1" stroke-width="1" stroke-linecap="square" stroke-linejoin="bevel" transform="matrix(1,0,0,1,83.2265,25.5)" font-family="Verdana" font-size="10pt" font-weight="400" font-style="italic"  > <text fill="#ffffff" fill-opacity="1" stroke="none" xml:space="preserve" x="0" y="13" font-family="Verdana" font-size="10pt" font-weight="400" font-style="italic"   >P. savastanoi</text> </g>                    <g fill="none" stroke="#000000" stroke-opacity="1" stroke-width="1" stroke-linecap="butt" stroke-linejoin="bevel" transform="matrix(1,0,0,1,75.0315,45)" font-family="Noto Sans" font-size="12pt" font-weight="400" font-style="normal"  > <polyline fill="none" vector-effect="none" points="0,11 7.13333,11 " /> </g>      <g fill="#023047" fill-opacity="1" stroke="#023047" stroke-opacity="1" stroke-width="1" stroke-linecap="square" stroke-linejoin="bevel" transform="matrix(1,0,0,1,82.1648,47.5)" font-family="Noto Sans" font-size="12pt" font-weight="400" font-style="normal"  > <rect x="0" y="0" width="85" height="17"/> </g>          <g fill="none" stroke="#ffffff" stroke-opacity="1" stroke-width="1" stroke-linecap="square" stroke-linejoin="bevel" transform="matrix(1,0,0,1,82.1648,47.5)" font-family="Verdana" font-size="10pt" font-weight="400" font-style="italic"  > <text fill="#ffffff" fill-opacity="1" stroke="none" xml:space="preserve" x="0" y="13" font-family="Verdana" font-size="10pt" font-weight="400" font-style="italic"   >P. viridiflava</text> </g>              <g fill="none" stroke="#000000" stroke-opacity="1" stroke-width="1" stroke-linecap="butt" stroke-linejoin="bevel" transform="matrix(1,0,0,1,59.0264,67)" font-family="Noto Sans" font-size="12pt" font-weight="400" font-style="normal"  > <polyline fill="none" vector-effect="none" points="10.1684,21.5 10.1684,55.5 " /> </g>      <g fill="none" stroke="#808080" stroke-opacity="1" stroke-dasharray="1,2" stroke-dashoffset="0" stroke-width="1" stroke-linecap="butt" stroke-linejoin="bevel" transform="matrix(1,0,0,1,59.0264,67)" font-family="Noto Sans" font-size="12pt" font-weight="400" font-style="normal"  > <polyline fill="none" vector-effect="none" points="10.6684,38.5 9.66844,38.5 " /> </g>      <g fill="none" stroke="#000000" stroke-opacity="1" stroke-width="1" stroke-linecap="butt" stroke-linejoin="bevel" transform="matrix(1,0,0,1,59.0264,67)" font-family="Noto Sans" font-size="12pt" font-weight="400" font-style="normal"  > <polyline fill="none" vector-effect="none" points="0,38.5 10.6684,38.5 " /> </g>                  <g fill="none" stroke="#000000" stroke-opacity="1" stroke-width="1" stroke-linecap="butt" stroke-linejoin="bevel" transform="matrix(1,0,0,1,69.6948,67)" font-family="Noto Sans" font-size="12pt" font-weight="400" font-style="normal"  > <polyline fill="none" vector-effect="none" points="3.33913,10.5 3.33913,33.5 " /> </g>      <g fill="none" stroke="#808080" stroke-opacity="1" stroke-dasharray="1,2" stroke-dashoffset="0" stroke-width="1" stroke-linecap="butt" stroke-linejoin="bevel" transform="matrix(1,0,0,1,69.6948,67)" font-family="Noto Sans" font-size="12pt" font-weight="400" font-style="normal"  > <polyline fill="none" vector-effect="none" points="3.83913,22 2.83913,22 " /> </g>      <g fill="none" stroke="#000000" stroke-opacity="1" stroke-width="1" stroke-linecap="butt" stroke-linejoin="bevel" transform="matrix(1,0,0,1,69.6948,67)" font-family="Noto Sans" font-size="12pt" font-weight="400" font-style="normal"  > <polyline fill="none" vector-effect="none" points="0,22 3.83913,22 " /> </g>                        <g fill="none" stroke="#000000" stroke-opacity="1" stroke-width="1" stroke-linecap="butt" stroke-linejoin="bevel" transform="matrix(1,0,0,1,73.5339,67)" font-family="Noto Sans" font-size="12pt" font-weight="400" font-style="normal"  > <polyline fill="none" vector-effect="none" points="0,11 12.6802,11 " /> </g>      <g fill="#ffb703" fill-opacity="1" stroke="#ffb703" stroke-opacity="1" stroke-width="1" stroke-linecap="square" stroke-linejoin="bevel" transform="matrix(1,0,0,1,86.2142,69.5)" font-family="Noto Sans" font-size="12pt" font-weight="400" font-style="normal"  > <rect x="0" y="0" width="87" height="17"/> </g>          <g fill="none" stroke="#ffffff" stroke-opacity="1" stroke-width="1" stroke-linecap="square" stroke-linejoin="bevel" transform="matrix(1,0,0,1,86.2142,69.5)" font-family="Verdana" font-size="10pt" font-weight="400" font-style="italic"  > <text fill="#ffffff" fill-opacity="1" stroke="none" xml:space="preserve" x="0" y="13" font-family="Verdana" font-size="10pt" font-weight="400" font-style="italic"   >P. protegens</text> </g>                    <g fill="none" stroke="#000000" stroke-opacity="1" stroke-width="1" stroke-linecap="butt" stroke-linejoin="bevel" transform="matrix(1,0,0,1,73.5339,89)" font-family="Noto Sans" font-size="12pt" font-weight="400" font-style="normal"  > <polyline fill="none" vector-effect="none" points="0,11 12.9534,11 " /> </g>      <g fill="#fc9201" fill-opacity="1" stroke="#fc9201" stroke-opacity="1" stroke-width="1" stroke-linecap="square" stroke-linejoin="bevel" transform="matrix(1,0,0,1,86.4873,91.5)" font-family="Noto Sans" font-size="12pt" font-weight="400" font-style="normal"  > <rect x="0" y="0" width="127" height="17"/> </g>          <g fill="none" stroke="#ffffff" stroke-opacity="1" stroke-width="1" stroke-linecap="square" stroke-linejoin="bevel" transform="matrix(1,0,0,1,86.4873,91.5)" font-family="Verdana" font-size="10pt" font-weight="400" font-style="italic"  > <text fill="#ffffff" fill-opacity="1" stroke="none" xml:space="preserve" x="0" y="13" font-family="Verdana" font-size="10pt" font-weight="400" font-style="italic"   >P. brassicacearum</text> </g>                    <g fill="none" stroke="#000000" stroke-opacity="1" stroke-width="1" stroke-linecap="butt" stroke-linejoin="bevel" transform="matrix(1,0,0,1,69.6948,111)" font-family="Noto Sans" font-size="12pt" font-weight="400" font-style="normal"  > <polyline fill="none" vector-effect="none" points="0,11 14.3431,11 " /> </g>      <g fill="#bb3e03" fill-opacity="1" stroke="#bb3e03" stroke-opacity="1" stroke-width="1" stroke-linecap="square" stroke-linejoin="bevel" transform="matrix(1,0,0,1,84.0379,113.5)" font-family="Noto Sans" font-size="12pt" font-weight="400" font-style="normal"  > <rect x="0" y="0" width="96" height="17"/> </g>          <g fill="none" stroke="#ffffff" stroke-opacity="1" stroke-width="1" stroke-linecap="square" stroke-linejoin="bevel" transform="matrix(1,0,0,1,84.0379,113.5)" font-family="Verdana" font-size="10pt" font-weight="400" font-style="italic"  > <text fill="#ffffff" fill-opacity="1" stroke="none" xml:space="preserve" x="0" y="13" font-family="Verdana" font-size="10pt" font-weight="400" font-style="italic"   >P. fluorescens</text> </g>                    <g fill="none" stroke="#000000" stroke-opacity="1" stroke-width="1" stroke-linecap="butt" stroke-linejoin="bevel" transform="matrix(1,0,0,1,1,133)" font-family="Noto Sans" font-size="12pt" font-weight="400" font-style="normal"  > <polyline fill="none" vector-effect="none" points="0,11 58.0264,11 " /> </g>      <g fill="#000000" fill-opacity="1" stroke="#000000" stroke-opacity="1" stroke-width="1" stroke-linecap="square" stroke-linejoin="bevel" transform="matrix(1,0,0,1,59.0264,135.5)" font-family="Noto Sans" font-size="12pt" font-weight="400" font-style="normal"  > <rect x="0" y="0" width="42" height="17"/> </g>          <g fill="none" stroke="#ffffff" stroke-opacity="1" stroke-width="1" stroke-linecap="square" stroke-linejoin="bevel" transform="matrix(1,0,0,1,59.0264,135.5)" font-family="Verdana" font-size="10pt" font-weight="400" font-style="italic"  > <text fill="#ffffff" fill-opacity="1" stroke="none" xml:space="preserve" x="0" y="13" font-family="Verdana" font-size="10pt" font-weight="400" font-style="italic"   >E. coli</text> </g>                                                                  <g fill="none" stroke="#000000" stroke-opacity="1" stroke-width="1" stroke-linecap="square" stroke-linejoin="bevel" transform="matrix(1,0,0,1,1,156)" font-family="Noto Sans" font-size="12pt" font-weight="400" font-style="normal"  > <polyline fill="none" vector-effect="none" points="0,5 50,5 " /> </g>      <g fill="none" stroke="#000000" stroke-opacity="1" stroke-width="1" stroke-linecap="square" stroke-linejoin="bevel" transform="matrix(1,0,0,1,1,156)" font-family="Noto Sans" font-size="12pt" font-weight="400" font-style="normal"  > <polyline fill="none" vector-effect="none" points="0,0 0,10 " /> </g>      <g fill="none" stroke="#000000" stroke-opacity="1" stroke-width="1" stroke-linecap="square" stroke-linejoin="bevel" transform="matrix(1,0,0,1,1,156)" font-family="Noto Sans" font-size="12pt" font-weight="400" font-style="normal"  > <polyline fill="none" vector-effect="none" points="50,0 50,10 " /> </g>      <g fill="none" stroke="#000000" stroke-opacity="1" stroke-width="1" stroke-linecap="square" stroke-linejoin="bevel" transform="matrix(1,0,0,1,1,166)" font-family="Noto Sans" font-size="12pt" font-weight="400" font-style="normal"  > <text fill="#000000" fill-opacity="1" stroke="none" xml:space="preserve" x="0" y="16" font-family="Noto Sans" font-size="12pt" font-weight="400" font-style="normal"   >0.25</text> </g>     </g> </svg> 